<mxfile host="app.diagrams.net" modified="2023-08-17T12:12:15.345Z" agent="Mozilla/5.0 (Windows NT 10.0; Win64; x64) AppleWebKit/537.36 (KHTML, like Gecko) Chrome/115.0.0.0 Safari/537.36" etag="UPEFLua4Vhu4BQ8XBdjD" version="21.3.7" type="device">
  <diagram name="Страница 1" id="1QWYn-_xfHQlauKtwIBn">
    <mxGraphModel dx="2022" dy="660" grid="1" gridSize="10" guides="1" tooltips="1" connect="1" arrows="1" fold="1" page="1" pageScale="1" pageWidth="827" pageHeight="1169" math="0" shadow="0">
      <root>
        <mxCell id="0" />
        <mxCell id="1" parent="0" />
        <mxCell id="Bdez_17KadO30dLiTZXt-4" value="" style="edgeStyle=orthogonalEdgeStyle;rounded=0;orthogonalLoop=1;jettySize=auto;html=1;" edge="1" parent="1" source="Bdez_17KadO30dLiTZXt-1" target="Bdez_17KadO30dLiTZXt-3">
          <mxGeometry relative="1" as="geometry" />
        </mxCell>
        <mxCell id="Bdez_17KadO30dLiTZXt-1" value="start&lt;br&gt;" style="ellipse;whiteSpace=wrap;html=1;" vertex="1" parent="1">
          <mxGeometry x="20" y="30" width="120" height="80" as="geometry" />
        </mxCell>
        <mxCell id="Bdez_17KadO30dLiTZXt-2" value="finish&lt;br&gt;" style="ellipse;whiteSpace=wrap;html=1;" vertex="1" parent="1">
          <mxGeometry x="414" y="280" width="120" height="80" as="geometry" />
        </mxCell>
        <mxCell id="Bdez_17KadO30dLiTZXt-7" value="" style="edgeStyle=orthogonalEdgeStyle;rounded=0;orthogonalLoop=1;jettySize=auto;html=1;" edge="1" parent="1" source="Bdez_17KadO30dLiTZXt-3" target="Bdez_17KadO30dLiTZXt-6">
          <mxGeometry relative="1" as="geometry" />
        </mxCell>
        <mxCell id="Bdez_17KadO30dLiTZXt-3" value="string[] array&lt;br&gt;int count = 0&lt;br&gt;string[] newArray&lt;br&gt;maxLength = 3" style="rounded=0;whiteSpace=wrap;html=1;" vertex="1" parent="1">
          <mxGeometry x="20" y="150" width="120" height="60" as="geometry" />
        </mxCell>
        <mxCell id="Bdez_17KadO30dLiTZXt-9" value="нет" style="edgeStyle=orthogonalEdgeStyle;rounded=0;orthogonalLoop=1;jettySize=auto;html=1;" edge="1" parent="1" source="Bdez_17KadO30dLiTZXt-6" target="Bdez_17KadO30dLiTZXt-8">
          <mxGeometry relative="1" as="geometry" />
        </mxCell>
        <mxCell id="Bdez_17KadO30dLiTZXt-35" value="" style="edgeStyle=orthogonalEdgeStyle;rounded=0;orthogonalLoop=1;jettySize=auto;html=1;" edge="1" parent="1" source="Bdez_17KadO30dLiTZXt-6" target="Bdez_17KadO30dLiTZXt-14">
          <mxGeometry relative="1" as="geometry" />
        </mxCell>
        <mxCell id="Bdez_17KadO30dLiTZXt-40" value="да" style="edgeStyle=orthogonalEdgeStyle;rounded=0;orthogonalLoop=1;jettySize=auto;html=1;" edge="1" parent="1" source="Bdez_17KadO30dLiTZXt-6" target="Bdez_17KadO30dLiTZXt-14">
          <mxGeometry relative="1" as="geometry" />
        </mxCell>
        <mxCell id="Bdez_17KadO30dLiTZXt-6" value="count &amp;lt;= array.Length" style="rhombus;whiteSpace=wrap;html=1;" vertex="1" parent="1">
          <mxGeometry x="10" y="270" width="140" height="100" as="geometry" />
        </mxCell>
        <mxCell id="Bdez_17KadO30dLiTZXt-10" value="" style="edgeStyle=orthogonalEdgeStyle;rounded=0;orthogonalLoop=1;jettySize=auto;html=1;" edge="1" parent="1" source="Bdez_17KadO30dLiTZXt-8" target="Bdez_17KadO30dLiTZXt-2">
          <mxGeometry relative="1" as="geometry" />
        </mxCell>
        <mxCell id="Bdez_17KadO30dLiTZXt-8" value="newArray" style="shape=document;whiteSpace=wrap;html=1;boundedLbl=1;" vertex="1" parent="1">
          <mxGeometry x="240" y="280" width="120" height="80" as="geometry" />
        </mxCell>
        <mxCell id="Bdez_17KadO30dLiTZXt-17" value="да" style="edgeStyle=orthogonalEdgeStyle;rounded=0;orthogonalLoop=1;jettySize=auto;html=1;" edge="1" parent="1" source="Bdez_17KadO30dLiTZXt-14" target="Bdez_17KadO30dLiTZXt-16">
          <mxGeometry relative="1" as="geometry" />
        </mxCell>
        <mxCell id="Bdez_17KadO30dLiTZXt-37" value="нет" style="edgeStyle=orthogonalEdgeStyle;rounded=0;orthogonalLoop=1;jettySize=auto;html=1;exitX=0;exitY=0.5;exitDx=0;exitDy=0;entryX=1;entryY=0.5;entryDx=0;entryDy=0;" edge="1" parent="1" source="Bdez_17KadO30dLiTZXt-14" target="Bdez_17KadO30dLiTZXt-36">
          <mxGeometry relative="1" as="geometry" />
        </mxCell>
        <mxCell id="Bdez_17KadO30dLiTZXt-14" value="array(count).Length &amp;lt;= maxLength" style="rhombus;whiteSpace=wrap;html=1;" vertex="1" parent="1">
          <mxGeometry x="-25" y="420" width="210" height="110" as="geometry" />
        </mxCell>
        <mxCell id="Bdez_17KadO30dLiTZXt-21" value="" style="edgeStyle=orthogonalEdgeStyle;rounded=0;orthogonalLoop=1;jettySize=auto;html=1;" edge="1" parent="1" source="Bdez_17KadO30dLiTZXt-16" target="Bdez_17KadO30dLiTZXt-20">
          <mxGeometry relative="1" as="geometry" />
        </mxCell>
        <mxCell id="Bdez_17KadO30dLiTZXt-16" value="string[] cloneNewArray = new string[newArray.Length +1]" style="rounded=0;whiteSpace=wrap;html=1;" vertex="1" parent="1">
          <mxGeometry x="-82.5" y="640" width="325" height="60" as="geometry" />
        </mxCell>
        <mxCell id="Bdez_17KadO30dLiTZXt-23" value="" style="edgeStyle=orthogonalEdgeStyle;rounded=0;orthogonalLoop=1;jettySize=auto;html=1;" edge="1" parent="1" source="Bdez_17KadO30dLiTZXt-20" target="Bdez_17KadO30dLiTZXt-22">
          <mxGeometry relative="1" as="geometry" />
        </mxCell>
        <mxCell id="Bdez_17KadO30dLiTZXt-29" value="" style="edgeStyle=orthogonalEdgeStyle;rounded=0;orthogonalLoop=1;jettySize=auto;html=1;" edge="1" parent="1" source="Bdez_17KadO30dLiTZXt-20" target="Bdez_17KadO30dLiTZXt-28">
          <mxGeometry relative="1" as="geometry" />
        </mxCell>
        <mxCell id="Bdez_17KadO30dLiTZXt-20" value="index = 0, cloneNewArray.Length -1 ,1" style="shape=hexagon;perimeter=hexagonPerimeter2;whiteSpace=wrap;html=1;fixedSize=1;" vertex="1" parent="1">
          <mxGeometry x="-25" y="730" width="210" height="80" as="geometry" />
        </mxCell>
        <mxCell id="Bdez_17KadO30dLiTZXt-27" style="edgeStyle=orthogonalEdgeStyle;rounded=0;orthogonalLoop=1;jettySize=auto;html=1;entryX=1;entryY=0.5;entryDx=0;entryDy=0;" edge="1" parent="1" source="Bdez_17KadO30dLiTZXt-22" target="Bdez_17KadO30dLiTZXt-20">
          <mxGeometry relative="1" as="geometry">
            <Array as="points">
              <mxPoint x="260" y="870" />
              <mxPoint x="260" y="770" />
            </Array>
          </mxGeometry>
        </mxCell>
        <mxCell id="Bdez_17KadO30dLiTZXt-22" value="cloneNewArray(index) = newArray(index)" style="rounded=0;whiteSpace=wrap;html=1;" vertex="1" parent="1">
          <mxGeometry x="-35" y="840" width="230" height="60" as="geometry" />
        </mxCell>
        <mxCell id="Bdez_17KadO30dLiTZXt-31" value="" style="edgeStyle=orthogonalEdgeStyle;rounded=0;orthogonalLoop=1;jettySize=auto;html=1;" edge="1" parent="1" source="Bdez_17KadO30dLiTZXt-28" target="Bdez_17KadO30dLiTZXt-30">
          <mxGeometry relative="1" as="geometry" />
        </mxCell>
        <mxCell id="Bdez_17KadO30dLiTZXt-28" value="newArray = cloneNewArray" style="rounded=0;whiteSpace=wrap;html=1;" vertex="1" parent="1">
          <mxGeometry x="-220" y="740" width="120" height="60" as="geometry" />
        </mxCell>
        <mxCell id="Bdez_17KadO30dLiTZXt-38" style="edgeStyle=orthogonalEdgeStyle;rounded=0;orthogonalLoop=1;jettySize=auto;html=1;entryX=0.5;entryY=1;entryDx=0;entryDy=0;" edge="1" parent="1" source="Bdez_17KadO30dLiTZXt-30" target="Bdez_17KadO30dLiTZXt-36">
          <mxGeometry relative="1" as="geometry" />
        </mxCell>
        <mxCell id="Bdez_17KadO30dLiTZXt-30" value="newArray(newArray.Length -1) = array(count)" style="rounded=0;whiteSpace=wrap;html=1;" vertex="1" parent="1">
          <mxGeometry x="-460" y="740" width="200" height="60" as="geometry" />
        </mxCell>
        <mxCell id="Bdez_17KadO30dLiTZXt-39" style="edgeStyle=orthogonalEdgeStyle;rounded=0;orthogonalLoop=1;jettySize=auto;html=1;entryX=0;entryY=0.5;entryDx=0;entryDy=0;exitX=0.5;exitY=0;exitDx=0;exitDy=0;" edge="1" parent="1" source="Bdez_17KadO30dLiTZXt-36" target="Bdez_17KadO30dLiTZXt-6">
          <mxGeometry relative="1" as="geometry">
            <Array as="points">
              <mxPoint x="-360" y="320" />
            </Array>
          </mxGeometry>
        </mxCell>
        <mxCell id="Bdez_17KadO30dLiTZXt-36" value="count += 1;" style="rounded=0;whiteSpace=wrap;html=1;" vertex="1" parent="1">
          <mxGeometry x="-420" y="445" width="120" height="60" as="geometry" />
        </mxCell>
      </root>
    </mxGraphModel>
  </diagram>
</mxfile>
